<mxfile host="app.diagrams.net" modified="2022-11-18T23:14:04.134Z" agent="5.0 (Macintosh; Intel Mac OS X 10_15_7) AppleWebKit/537.36 (KHTML, like Gecko) Chrome/107.0.0.0 Safari/537.36" etag="rvvGATJzjt7Yz0OiKKym" version="20.5.3" type="github">
  <diagram id="S9sGnKhk-ZLwbMMuKQgS" name="Page-1">
    <mxGraphModel dx="1072" dy="698" grid="1" gridSize="10" guides="1" tooltips="1" connect="1" arrows="1" fold="1" page="1" pageScale="1" pageWidth="850" pageHeight="1100" math="0" shadow="0">
      <root>
        <mxCell id="0" />
        <mxCell id="1" parent="0" />
        <mxCell id="2HlXv7cQM4DmxMxwVxA--4" style="edgeStyle=orthogonalEdgeStyle;rounded=0;orthogonalLoop=1;jettySize=auto;html=1;entryX=0.5;entryY=0;entryDx=0;entryDy=0;" edge="1" parent="1" source="2HlXv7cQM4DmxMxwVxA--1" target="2HlXv7cQM4DmxMxwVxA--15">
          <mxGeometry relative="1" as="geometry">
            <mxPoint x="620" y="190" as="targetPoint" />
          </mxGeometry>
        </mxCell>
        <mxCell id="2HlXv7cQM4DmxMxwVxA--7" value="M" style="edgeLabel;html=1;align=center;verticalAlign=middle;resizable=0;points=[];" vertex="1" connectable="0" parent="2HlXv7cQM4DmxMxwVxA--4">
          <mxGeometry x="-0.2375" y="3" relative="1" as="geometry">
            <mxPoint x="-18" y="5" as="offset" />
          </mxGeometry>
        </mxCell>
        <mxCell id="2HlXv7cQM4DmxMxwVxA--5" style="edgeStyle=orthogonalEdgeStyle;rounded=0;orthogonalLoop=1;jettySize=auto;html=1;exitX=0;exitY=0.5;exitDx=0;exitDy=0;entryX=0.5;entryY=0;entryDx=0;entryDy=0;" edge="1" parent="1" source="2HlXv7cQM4DmxMxwVxA--1" target="2HlXv7cQM4DmxMxwVxA--10">
          <mxGeometry relative="1" as="geometry">
            <mxPoint x="160" y="150" as="targetPoint" />
          </mxGeometry>
        </mxCell>
        <mxCell id="2HlXv7cQM4DmxMxwVxA--6" value="S" style="edgeLabel;html=1;align=center;verticalAlign=middle;resizable=0;points=[];" vertex="1" connectable="0" parent="2HlXv7cQM4DmxMxwVxA--5">
          <mxGeometry x="-0.1286" y="-2" relative="1" as="geometry">
            <mxPoint x="-32" y="42" as="offset" />
          </mxGeometry>
        </mxCell>
        <mxCell id="2HlXv7cQM4DmxMxwVxA--16" style="edgeStyle=orthogonalEdgeStyle;rounded=0;orthogonalLoop=1;jettySize=auto;html=1;exitX=1;exitY=0.5;exitDx=0;exitDy=0;" edge="1" parent="1" source="2HlXv7cQM4DmxMxwVxA--1" target="2HlXv7cQM4DmxMxwVxA--14">
          <mxGeometry relative="1" as="geometry">
            <Array as="points">
              <mxPoint x="677" y="110" />
            </Array>
          </mxGeometry>
        </mxCell>
        <mxCell id="2HlXv7cQM4DmxMxwVxA--17" value="L" style="edgeLabel;html=1;align=center;verticalAlign=middle;resizable=0;points=[];" vertex="1" connectable="0" parent="2HlXv7cQM4DmxMxwVxA--16">
          <mxGeometry x="-0.2737" y="3" relative="1" as="geometry">
            <mxPoint x="-9" y="48" as="offset" />
          </mxGeometry>
        </mxCell>
        <mxCell id="2HlXv7cQM4DmxMxwVxA--1" value="Pizza size input: S, M, L?" style="rhombus;whiteSpace=wrap;html=1;" vertex="1" parent="1">
          <mxGeometry x="340" y="70" width="170" height="80" as="geometry" />
        </mxCell>
        <mxCell id="2HlXv7cQM4DmxMxwVxA--27" style="edgeStyle=orthogonalEdgeStyle;rounded=0;orthogonalLoop=1;jettySize=auto;html=1;exitX=0;exitY=0.5;exitDx=0;exitDy=0;" edge="1" parent="1" source="2HlXv7cQM4DmxMxwVxA--2" target="2HlXv7cQM4DmxMxwVxA--26">
          <mxGeometry relative="1" as="geometry" />
        </mxCell>
        <mxCell id="2HlXv7cQM4DmxMxwVxA--28" value="Y" style="edgeLabel;html=1;align=center;verticalAlign=middle;resizable=0;points=[];" vertex="1" connectable="0" parent="2HlXv7cQM4DmxMxwVxA--27">
          <mxGeometry x="0.136" y="1" relative="1" as="geometry">
            <mxPoint x="-11" y="14" as="offset" />
          </mxGeometry>
        </mxCell>
        <mxCell id="2HlXv7cQM4DmxMxwVxA--32" style="edgeStyle=orthogonalEdgeStyle;rounded=0;orthogonalLoop=1;jettySize=auto;html=1;exitX=1;exitY=0.5;exitDx=0;exitDy=0;entryX=0.5;entryY=0;entryDx=0;entryDy=0;" edge="1" parent="1" source="2HlXv7cQM4DmxMxwVxA--2" target="2HlXv7cQM4DmxMxwVxA--31">
          <mxGeometry relative="1" as="geometry">
            <Array as="points">
              <mxPoint x="400" y="360" />
              <mxPoint x="400" y="560" />
            </Array>
          </mxGeometry>
        </mxCell>
        <mxCell id="2HlXv7cQM4DmxMxwVxA--37" value="N" style="edgeLabel;html=1;align=center;verticalAlign=middle;resizable=0;points=[];" vertex="1" connectable="0" parent="2HlXv7cQM4DmxMxwVxA--32">
          <mxGeometry x="-0.1586" y="-1" relative="1" as="geometry">
            <mxPoint x="-9" as="offset" />
          </mxGeometry>
        </mxCell>
        <mxCell id="2HlXv7cQM4DmxMxwVxA--2" value="Add Pepperoni: Y or N?" style="rhombus;whiteSpace=wrap;html=1;" vertex="1" parent="1">
          <mxGeometry x="145" y="320" width="190" height="80" as="geometry" />
        </mxCell>
        <mxCell id="2HlXv7cQM4DmxMxwVxA--29" style="edgeStyle=orthogonalEdgeStyle;rounded=0;orthogonalLoop=1;jettySize=auto;html=1;exitX=1;exitY=0.5;exitDx=0;exitDy=0;entryX=0.5;entryY=0;entryDx=0;entryDy=0;" edge="1" parent="1" source="2HlXv7cQM4DmxMxwVxA--3" target="2HlXv7cQM4DmxMxwVxA--25">
          <mxGeometry relative="1" as="geometry" />
        </mxCell>
        <mxCell id="2HlXv7cQM4DmxMxwVxA--30" value="Y" style="edgeLabel;html=1;align=center;verticalAlign=middle;resizable=0;points=[];" vertex="1" connectable="0" parent="2HlXv7cQM4DmxMxwVxA--29">
          <mxGeometry x="0.3077" y="1" relative="1" as="geometry">
            <mxPoint x="9" as="offset" />
          </mxGeometry>
        </mxCell>
        <mxCell id="2HlXv7cQM4DmxMxwVxA--33" style="edgeStyle=orthogonalEdgeStyle;rounded=0;orthogonalLoop=1;jettySize=auto;html=1;exitX=0;exitY=0.5;exitDx=0;exitDy=0;entryX=0.5;entryY=0;entryDx=0;entryDy=0;" edge="1" parent="1" source="2HlXv7cQM4DmxMxwVxA--3" target="2HlXv7cQM4DmxMxwVxA--31">
          <mxGeometry relative="1" as="geometry">
            <Array as="points">
              <mxPoint x="460" y="360" />
              <mxPoint x="460" y="560" />
            </Array>
          </mxGeometry>
        </mxCell>
        <mxCell id="2HlXv7cQM4DmxMxwVxA--34" value="N" style="edgeLabel;html=1;align=center;verticalAlign=middle;resizable=0;points=[];" vertex="1" connectable="0" parent="2HlXv7cQM4DmxMxwVxA--33">
          <mxGeometry x="0.0118" relative="1" as="geometry">
            <mxPoint x="10" y="-39" as="offset" />
          </mxGeometry>
        </mxCell>
        <mxCell id="2HlXv7cQM4DmxMxwVxA--3" value="Add Pepperoni: Y or N?" style="rhombus;whiteSpace=wrap;html=1;" vertex="1" parent="1">
          <mxGeometry x="500" y="320" width="210" height="80" as="geometry" />
        </mxCell>
        <mxCell id="2HlXv7cQM4DmxMxwVxA--11" style="edgeStyle=orthogonalEdgeStyle;rounded=0;orthogonalLoop=1;jettySize=auto;html=1;entryX=0.5;entryY=0;entryDx=0;entryDy=0;" edge="1" parent="1" source="2HlXv7cQM4DmxMxwVxA--10" target="2HlXv7cQM4DmxMxwVxA--2">
          <mxGeometry relative="1" as="geometry" />
        </mxCell>
        <mxCell id="2HlXv7cQM4DmxMxwVxA--10" value="Bill = 15" style="rounded=1;whiteSpace=wrap;html=1;" vertex="1" parent="1">
          <mxGeometry x="192.5" y="200" width="95" height="60" as="geometry" />
        </mxCell>
        <mxCell id="2HlXv7cQM4DmxMxwVxA--22" style="edgeStyle=orthogonalEdgeStyle;rounded=0;orthogonalLoop=1;jettySize=auto;html=1;entryX=1;entryY=0;entryDx=0;entryDy=0;" edge="1" parent="1" source="2HlXv7cQM4DmxMxwVxA--14" target="2HlXv7cQM4DmxMxwVxA--3">
          <mxGeometry relative="1" as="geometry" />
        </mxCell>
        <mxCell id="2HlXv7cQM4DmxMxwVxA--14" value="Bill = 25" style="rounded=1;whiteSpace=wrap;html=1;" vertex="1" parent="1">
          <mxGeometry x="632" y="200" width="90" height="60" as="geometry" />
        </mxCell>
        <mxCell id="2HlXv7cQM4DmxMxwVxA--19" style="edgeStyle=orthogonalEdgeStyle;rounded=0;orthogonalLoop=1;jettySize=auto;html=1;entryX=0;entryY=0;entryDx=0;entryDy=0;" edge="1" parent="1" source="2HlXv7cQM4DmxMxwVxA--15" target="2HlXv7cQM4DmxMxwVxA--3">
          <mxGeometry relative="1" as="geometry" />
        </mxCell>
        <mxCell id="2HlXv7cQM4DmxMxwVxA--15" value="Bill = 20" style="rounded=1;whiteSpace=wrap;html=1;" vertex="1" parent="1">
          <mxGeometry x="410" y="200" width="95" height="60" as="geometry" />
        </mxCell>
        <mxCell id="2HlXv7cQM4DmxMxwVxA--36" style="edgeStyle=orthogonalEdgeStyle;rounded=0;orthogonalLoop=1;jettySize=auto;html=1;entryX=1;entryY=0;entryDx=0;entryDy=0;" edge="1" parent="1" source="2HlXv7cQM4DmxMxwVxA--25" target="2HlXv7cQM4DmxMxwVxA--31">
          <mxGeometry relative="1" as="geometry" />
        </mxCell>
        <mxCell id="2HlXv7cQM4DmxMxwVxA--25" value="Bill += 3" style="rounded=1;whiteSpace=wrap;html=1;" vertex="1" parent="1">
          <mxGeometry x="690" y="440" width="120" height="60" as="geometry" />
        </mxCell>
        <mxCell id="2HlXv7cQM4DmxMxwVxA--35" style="edgeStyle=orthogonalEdgeStyle;rounded=0;orthogonalLoop=1;jettySize=auto;html=1;entryX=0;entryY=0;entryDx=0;entryDy=0;" edge="1" parent="1" source="2HlXv7cQM4DmxMxwVxA--26" target="2HlXv7cQM4DmxMxwVxA--31">
          <mxGeometry relative="1" as="geometry" />
        </mxCell>
        <mxCell id="2HlXv7cQM4DmxMxwVxA--26" value="Bill += 2" style="rounded=1;whiteSpace=wrap;html=1;" vertex="1" parent="1">
          <mxGeometry x="60" y="440" width="120" height="60" as="geometry" />
        </mxCell>
        <mxCell id="2HlXv7cQM4DmxMxwVxA--39" style="edgeStyle=orthogonalEdgeStyle;rounded=0;orthogonalLoop=1;jettySize=auto;html=1;exitX=0;exitY=0.5;exitDx=0;exitDy=0;entryX=0.5;entryY=0;entryDx=0;entryDy=0;" edge="1" parent="1" source="2HlXv7cQM4DmxMxwVxA--31" target="2HlXv7cQM4DmxMxwVxA--38">
          <mxGeometry relative="1" as="geometry" />
        </mxCell>
        <mxCell id="2HlXv7cQM4DmxMxwVxA--42" value="Y" style="edgeLabel;html=1;align=center;verticalAlign=middle;resizable=0;points=[];" vertex="1" connectable="0" parent="2HlXv7cQM4DmxMxwVxA--39">
          <mxGeometry x="-0.4508" y="1" relative="1" as="geometry">
            <mxPoint x="-5" y="-16" as="offset" />
          </mxGeometry>
        </mxCell>
        <mxCell id="2HlXv7cQM4DmxMxwVxA--41" style="edgeStyle=orthogonalEdgeStyle;rounded=0;orthogonalLoop=1;jettySize=auto;html=1;exitX=1;exitY=0.5;exitDx=0;exitDy=0;entryX=0.5;entryY=0;entryDx=0;entryDy=0;" edge="1" parent="1" source="2HlXv7cQM4DmxMxwVxA--31" target="2HlXv7cQM4DmxMxwVxA--40">
          <mxGeometry relative="1" as="geometry" />
        </mxCell>
        <mxCell id="2HlXv7cQM4DmxMxwVxA--43" value="N" style="edgeLabel;html=1;align=center;verticalAlign=middle;resizable=0;points=[];" vertex="1" connectable="0" parent="2HlXv7cQM4DmxMxwVxA--41">
          <mxGeometry x="-0.4176" y="-1" relative="1" as="geometry">
            <mxPoint y="-16" as="offset" />
          </mxGeometry>
        </mxCell>
        <mxCell id="2HlXv7cQM4DmxMxwVxA--31" value="Add extra cheese: Y or N?" style="rhombus;whiteSpace=wrap;html=1;" vertex="1" parent="1">
          <mxGeometry x="318" y="560" width="215" height="90" as="geometry" />
        </mxCell>
        <mxCell id="2HlXv7cQM4DmxMxwVxA--38" value="Bill +=&amp;nbsp; 1" style="rounded=1;whiteSpace=wrap;html=1;" vertex="1" parent="1">
          <mxGeometry x="150" y="690" width="120" height="60" as="geometry" />
        </mxCell>
        <mxCell id="2HlXv7cQM4DmxMxwVxA--40" value="Bill unchanged" style="rounded=1;whiteSpace=wrap;html=1;" vertex="1" parent="1">
          <mxGeometry x="570" y="690" width="120" height="60" as="geometry" />
        </mxCell>
      </root>
    </mxGraphModel>
  </diagram>
</mxfile>
